<svg width="966" height="965" viewBox="0 0 966 965" fill="none" xmlns="http://www.w3.org/2000/svg">
<rect x="60.375" y="844.375" width="60.3125" height="60.3125" fill="#DC9613"/>
<rect x="120.688" y="844.375" width="60.3125" height="60.3125" fill="#3F2E0E"/>
<rect x="120.688" y="904.688" width="60.3125" height="60.3125" fill="#3F2E0E"/>
<rect x="60.375" y="904.688" width="60.3125" height="60.3125" fill="#3F2E0E"/>
<rect x="0.0625" y="904.688" width="60.3125" height="60.3125" fill="#3F2E0E"/>
<rect x="0.0625" y="844.375" width="60.3125" height="60.3125" fill="#825D16"/>
<rect x="120.688" y="784.062" width="60.3125" height="60.3125" fill="#684E1E"/>
<rect x="181" y="723.75" width="60.3125" height="60.3125" fill="#896727"/>
<rect x="241.312" y="723.75" width="60.3125" height="60.3125" fill="#281E0B"/>
<rect x="181" y="663.438" width="60.3125" height="60.3125" fill="#493615"/>
<rect x="241.312" y="603.125" width="60.3125" height="60.3125" fill="#825D16"/>
<rect x="301.625" y="603.125" width="60.3125" height="60.3125" fill="#DC9613"/>
<rect x="361.938" y="603.125" width="60.3125" height="60.3125" fill="#825D16"/>
<rect x="361.938" y="663.438" width="60.3125" height="60.3125" fill="#825D16"/>
<rect x="422.25" y="663.438" width="60.3125" height="60.3125" fill="#825D16"/>
<rect x="422.25" y="723.75" width="60.3125" height="60.3125" fill="#3F2E0E"/>
<rect x="542.875" y="723.75" width="60.3125" height="60.3125" fill="#3F2E0E"/>
<rect x="542.875" y="784.062" width="60.3125" height="60.3125" fill="#3F2E0E"/>
<rect x="482.562" y="784.062" width="60.3125" height="60.3125" fill="#3F2E0E"/>
<rect x="482.562" y="723.75" width="60.3125" height="60.3125" fill="#825D16"/>
<rect x="482.562" y="663.438" width="60.3125" height="60.3125" fill="#3F2E0E"/>
<rect x="422.25" y="603.125" width="60.3125" height="60.3125" fill="#3F2E0E"/>
<rect x="482.562" y="542.812" width="60.3125" height="60.3125" fill="#3F2E0E"/>
<rect x="542.875" y="482.5" width="60.3125" height="60.3125" fill="#3F2E0E"/>
<rect x="603.188" y="422.188" width="60.3125" height="60.3125" fill="#3F2E0E"/>
<rect x="663.5" y="361.875" width="60.3125" height="60.3125" fill="#3F2E0E"/>
<rect x="723.812" y="301.562" width="60.3125" height="60.3125" fill="#3F2E0E"/>
<rect x="784.125" y="241.25" width="60.3125" height="60.3125" fill="#3F2E0E"/>
<rect x="844.438" y="180.938" width="60.3125" height="60.3125" fill="#3F2E0E"/>
<rect x="904.75" y="120.625" width="60.3125" height="60.3125" fill="#3F2E0E"/>
<rect x="904.75" y="60.3125" width="60.3125" height="60.3125" fill="#3F2E0E"/>
<rect x="904.75" width="60.3125" height="60.3125" fill="#825D16"/>
<rect x="844.438" width="60.3125" height="60.3125" fill="#825D16"/>
<rect x="784.125" width="60.3125" height="60.3125" fill="#825D16"/>
<rect x="723.812" y="60.3125" width="60.3125" height="60.3125" fill="#825D16"/>
<rect x="663.5" y="120.625" width="60.3125" height="60.3125" fill="#825D16"/>
<rect x="603.188" y="180.938" width="60.3125" height="60.3125" fill="#825D16"/>
<rect x="542.875" y="241.25" width="60.3125" height="60.3125" fill="#825D16"/>
<rect x="482.562" y="301.562" width="60.3125" height="60.3125" fill="#825D16"/>
<rect x="422.25" y="361.875" width="60.3125" height="60.3125" fill="#825D16"/>
<rect x="361.938" y="422.188" width="60.3125" height="60.3125" fill="#825D16"/>
<rect x="301.625" y="542.812" width="60.3125" height="60.3125" fill="#E9B115"/>
<rect x="241.312" y="542.812" width="60.3125" height="60.3125" fill="#E9B115"/>
<rect x="241.312" y="482.5" width="60.3125" height="60.3125" fill="#E9B115"/>
<rect x="241.312" y="422.188" width="60.3125" height="60.3125" fill="#825D16"/>
<rect x="181" y="422.188" width="60.3125" height="60.3125" fill="#DC9613"/>
<rect x="181" y="361.875" width="60.3125" height="60.3125" fill="#825D16"/>
<rect x="120.688" y="361.875" width="60.3125" height="60.3125" fill="#825D16"/>
<rect x="120.688" y="422.188" width="60.3125" height="60.3125" fill="#825D16"/>
<rect x="181" y="482.5" width="60.3125" height="60.3125" fill="#825D16"/>
<rect x="181" y="542.812" width="60.3125" height="60.3125" fill="#825D16"/>
<rect x="422.25" y="542.812" width="60.3125" height="60.3125" fill="#FDFF76"/>
<rect x="361.938" y="542.812" width="60.3125" height="60.3125" fill="#DC9613"/>
<rect x="361.938" y="482.5" width="60.3125" height="60.3125" fill="#FDFF76"/>
<rect x="422.25" y="482.5" width="60.3125" height="60.3125" fill="#DC9613"/>
<rect x="482.562" y="482.5" width="60.3125" height="60.3125" fill="#FDFF76"/>
<rect x="482.562" y="422.188" width="60.3125" height="60.3125" fill="#EAEE57"/>
<rect x="482.562" y="361.875" width="60.3125" height="60.3125" fill="#FDFF76"/>
<rect x="422.25" y="422.188" width="60.3125" height="60.3125" fill="#FDFF76"/>
<rect x="542.875" y="422.188" width="60.3125" height="60.3125" fill="#FDFF76" fill-opacity="0.992157"/>
<rect x="542.875" y="361.875" width="60.3125" height="60.3125" fill="#EAEE57"/>
<rect x="542.875" y="301.562" width="60.3125" height="60.3125" fill="white"/>
<rect x="603.188" y="241.25" width="60.3125" height="60.3125" fill="white"/>
<rect x="663.5" y="241.25" width="60.3125" height="60.3125" fill="#EAEE57"/>
<rect x="663.5" y="180.938" width="60.3125" height="60.3125" fill="white"/>
<rect x="723.812" y="180.938" width="60.3125" height="60.3125" fill="#EAEE57"/>
<rect x="723.812" y="120.625" width="60.3125" height="60.3125" fill="white"/>
<rect x="784.125" y="120.625" width="60.3125" height="60.3125" fill="#EAEE57"/>
<rect x="784.125" y="60.3125" width="60.3125" height="60.3125" fill="white"/>
<rect x="844.438" y="60.3125" width="60.3125" height="60.3125" fill="white"/>
<rect x="844.438" y="120.625" width="60.3125" height="60.3125" fill="white"/>
<rect x="784.125" y="180.938" width="60.3125" height="60.3125" fill="white"/>
<rect x="723.812" y="241.25" width="60.3125" height="60.3125" fill="#FDFF76"/>
<rect x="663.5" y="301.562" width="60.3125" height="60.3125" fill="#FDFF76"/>
<rect x="301.625" y="482.5" width="60.3125" height="60.3125" fill="#3F2E0E"/>
<rect x="603.188" y="361.875" width="60.3125" height="60.3125" fill="#FDFF76"/>
<rect x="603.188" y="301.562" width="60.3125" height="60.3125" fill="#FDFF76"/>
<rect x="361.938" y="723.75" width="60.3125" height="60.3125" fill="#3F2E0E"/>
<rect x="301.625" y="663.438" width="60.3125" height="60.3125" fill="#3F2E0E"/>
<rect x="241.312" y="663.438" width="60.3125" height="60.3125" fill="#684E1E"/>
<rect x="181" y="784.062" width="60.3125" height="60.3125" fill="#281E0B"/>
<rect x="120.688" y="723.75" width="60.3125" height="60.3125" fill="#493615"/>
<rect x="60.375" y="784.062" width="60.3125" height="60.3125" fill="#825D16"/>
<rect x="0.0625" y="784.062" width="60.3125" height="60.3125" fill="#825D16"/>
</svg>
